<svg width="16" height="16" viewBox="0 0 16 16" fill="none" xmlns="http://www.w3.org/2000/svg">
<g clip-path="url(#clip0_4580_7165)">
<ellipse cx="7.9456" cy="7.99992" rx="7.31279" ry="7.25333" fill="#49C71C"/>
<path d="M12.6458 6.64221C12.6473 6.49111 12.5387 6.36272 12.3923 6.34292C12.1595 6.3106 11.9618 6.29571 11.7713 6.29571C11.1332 6.29571 10.5242 6.43009 9.96922 6.67163C9.56378 5.85968 8.92963 5.16976 8.15459 4.71121C8.0641 4.65746 7.95231 4.65746 7.86182 4.71121C7.0875 5.16995 6.45316 5.85986 6.04719 6.67163C5.49235 6.42973 4.88322 6.29571 4.24551 6.29571C4.05424 6.29571 3.85711 6.3106 3.62413 6.34292C3.47828 6.36308 3.36951 6.49147 3.37111 6.64221C3.39294 8.92787 5.0131 10.8369 7.1315 11.2568C7.1315 11.2568 7.57635 11.3297 8.00217 11.3297C8.428 11.3297 8.88509 11.2564 8.88509 11.2564C11.0037 10.8365 12.6238 8.9275 12.6458 6.64221ZM8.00838 5.31995C8.61876 5.71821 9.11948 6.28354 9.44792 6.9404C8.88172 7.27891 8.39058 7.73655 8.00838 8.27954C7.62601 7.73655 7.13505 7.27854 6.5685 6.94022C6.89728 6.28354 7.39801 5.71821 8.00838 5.31995ZM3.96676 6.90608C4.06488 6.8979 4.15644 6.89409 4.24551 6.89409C5.68185 6.89409 6.94963 7.67226 7.67037 8.8367C7.38594 9.38642 7.20442 9.99897 7.15137 10.6482C5.42794 10.2634 4.10144 8.75026 3.96676 6.90608ZM8.00838 10.745C8.00626 10.745 8.0043 10.745 8.00217 10.745C7.91026 10.7446 7.82013 10.7379 7.72981 10.7316C7.76122 10.3041 7.85916 9.89582 8.00838 9.51408C8.15778 9.896 8.25555 10.3042 8.28696 10.7314C8.19451 10.7379 8.10225 10.745 8.00838 10.745ZM8.8654 10.6478C8.81234 9.99878 8.63083 9.38642 8.34622 8.8367C9.06679 7.6719 10.3347 6.89373 11.7713 6.89373C11.8603 6.89373 11.9521 6.89754 12.0498 6.90571C11.9152 8.75008 10.5885 10.2634 8.8654 10.6478Z" fill="white"/>
</g>
<defs>
<clipPath id="clip0_4580_7165">
<rect width="16" height="16" fill="white"/>
</clipPath>
</defs>
</svg>
